<?xml version="1.0" encoding="utf-8"?>
<!-- Generator: Adobe Illustrator 22.0.1, SVG Export Plug-In . SVG Version: 6.00 Build 0)  -->
<svg version="1.1" id="Layer_1" xmlns="http://www.w3.org/2000/svg" xmlns:xlink="http://www.w3.org/1999/xlink" x="0px" y="0px"
	 viewBox="0 0 128 128" style="enable-background:new 0 0 128 128;" xml:space="preserve">
<style type="text/css">
	.st0{fill:#FF7C00;}
	.st1{fill:#261300;}
</style>
<g id="XMLID_1_">
	<rect id="XMLID_3_" class="st0" width="128" height="128"/>
	<rect id="XMLID_5_" x="5.6" y="5.6" class="st1" width="116.7" height="116.7"/>
	<path id="XMLID_11_" class="st0" d="M44.2,72.9l-4.6,15.3c-0.1,0.5-0.3,0.7-0.8,0.7h-7.7c-0.5,0-0.7-0.3-0.5-0.9
		c4.1-13.5,11-35.9,15.8-51.2c0.2-0.9,0.5-1.8,0.6-4.8c0-0.4,0.2-0.5,0.5-0.5h10.5c0.4,0,0.5,0.1,0.6,0.4C64.2,50,70.3,69.9,76,88.1
		c0.2,0.5,0,0.8-0.5,0.8h-8.5c-0.4,0-0.5-0.2-0.7-0.5l-4.8-15.5H44.2z M59.5,64.2c-1.5-5.9-5.2-17.8-6.7-24h-0.1
		c-1.1,5.8-4.2,15.8-6.5,24H59.5z"/>
	<path id="XMLID_7_" class="st0" d="M83.7,34.8c0-3.3,2.2-5.5,5.1-5.5c3.1,0,4.9,2.2,4.9,5.5c0,3.3-2,5.5-5,5.5
		C85.7,40.3,83.7,38.1,83.7,34.8z M84.2,46.8c0-0.5,0.1-0.7,0.5-0.7h7.9c0.4,0,0.6,0.1,0.6,0.7v41.4c0,0.4-0.1,0.7-0.6,0.7h-7.7
		c-0.4,0-0.7-0.2-0.7-0.8V46.8z"/>
</g>
</svg>
