<?xml version="1.0" standalone="no"?>
<!DOCTYPE svg PUBLIC "-//W3C//DTD SVG 20010904//EN"
 "http://www.w3.org/TR/2001/REC-SVG-20010904/DTD/svg10.dtd">
<svg version="1.0" xmlns="http://www.w3.org/2000/svg"
 width="512.000000pt" height="512.000000pt" viewBox="0 0 512.000000 512.000000"
 preserveAspectRatio="xMidYMid meet">

<g transform="translate(0.000000,512.000000) scale(0.100000,-0.100000)"
fill="#000000" stroke="none">
<path d="M3260 3435 l-155 -155 80 -78 80 -77 -75 78 -75 77 155 155 c85 85
153 155 150 155 -3 0 -75 -70 -160 -155z"/>
<path d="M3475 3200 c38 -38 72 -70 74 -70 3 0 -26 32 -64 70 -38 39 -72 70
-74 70 -3 0 26 -31 64 -70z"/>
<path d="M71 3134 c0 -11 3 -14 6 -6 3 7 2 16 -1 19 -3 4 -6 -2 -5 -13z"/>
<path d="M3180 3036 l-80 -81 -80 80 -80 80 -240 -240 c-131 -131 -236 -244
-233 -249 3 -6 3 -8 -2 -4 -4 4 -115 -98 -247 -226 l-239 -232 -316 310 c-173
171 -318 312 -322 314 -3 1 -112 -104 -241 -233 l-235 -235 558 -558 557 -557
640 640 640 640 -81 79 -80 79 -80 -79 -79 -79 -77 78 -78 77 79 79 79 79 60
-65 c92 -98 86 -98 179 -7 l79 79 79 -81 79 -80 78 78 77 78 -157 158 -156
158 -81 -80z m-1603 -626 l78 75 -78 -80 -77 -80 -83 85 -82 85 82 -80 83 -80
77 75z m965 -2 l-82 -83 -77 80 -78 80 78 -75 77 -75 78 78 c42 42 79 77 82
77 3 0 -32 -37 -78 -82z"/>
<path d="M61 3094 c0 -11 3 -14 6 -6 3 7 2 16 -1 19 -3 4 -6 -2 -5 -13z"/>
<path d="M141 3094 c0 -11 3 -14 6 -6 3 7 2 16 -1 19 -3 4 -6 -2 -5 -13z"/>
<path d="M131 3054 c0 -11 3 -14 6 -6 3 7 2 16 -1 19 -3 4 -6 -2 -5 -13z"/>
<path d="M51 3044 c0 -11 3 -14 6 -6 3 7 2 16 -1 19 -3 4 -6 -2 -5 -13z"/>
<path d="M122 3000 c0 -14 2 -19 5 -12 2 6 2 18 0 25 -3 6 -5 1 -5 -13z"/>
<path d="M42 2985 c0 -16 2 -22 5 -12 2 9 2 23 0 30 -3 6 -5 -1 -5 -18z"/>
<path d="M112 2940 c0 -14 2 -19 5 -12 2 6 2 18 0 25 -3 6 -5 1 -5 -13z"/>
<path d="M32 2920 c0 -19 2 -27 5 -17 2 9 2 25 0 35 -3 9 -5 1 -5 -18z"/>
<path d="M102 2870 c0 -19 2 -27 5 -17 2 9 2 25 0 35 -3 9 -5 1 -5 -18z"/>
<path d="M23 2835 c0 -22 2 -30 4 -17 2 12 2 30 0 40 -3 9 -5 -1 -4 -23z"/>
<path d="M93 2765 c0 -27 2 -38 4 -22 2 15 2 37 0 50 -2 12 -4 0 -4 -28z"/>
<path d="M13 2720 c0 -30 2 -43 4 -27 2 15 2 39 0 55 -2 15 -4 2 -4 -28z"/>
<path d="M84 2555 c0 -71 1 -99 3 -62 2 37 2 96 0 130 -2 34 -3 4 -3 -68z"/>
<path d="M13 2415 c0 -38 2 -53 4 -32 2 20 2 52 0 70 -2 17 -4 1 -4 -38z"/>
<path d="M93 2360 c0 -30 2 -43 4 -27 2 15 2 39 0 55 -2 15 -4 2 -4 -28z"/>
<path d="M23 2295 c0 -27 2 -38 4 -22 2 15 2 37 0 50 -2 12 -4 0 -4 -28z"/>
<path d="M103 2255 c0 -22 2 -30 4 -17 2 12 2 30 0 40 -3 9 -5 -1 -4 -23z"/>
<path d="M32 2210 c0 -19 2 -27 5 -17 2 9 2 25 0 35 -3 9 -5 1 -5 -18z"/>
<path d="M111 2195 c-1 -27 32 -192 36 -180 1 6 -6 53 -16 105 -11 52 -20 86
-20 75z"/>
<path d="M41 2151 c-2 -71 79 -365 150 -544 68 -171 221 -453 239 -442 5 3 12
0 16 -6 5 -8 3 -9 -6 -4 -8 5 -11 3 -8 -6 3 -8 10 -13 16 -12 6 2 21 -12 32
-30 l22 -32 -26 30 c-14 17 -26 26 -26 22 0 -14 43 -66 50 -62 4 3 20 -12 35
-33 l26 -37 -30 35 c-17 19 -31 30 -31 25 1 -6 17 -28 36 -50 20 -22 33 -33
28 -25 -5 10 0 9 14 -4 25 -21 31 -36 7 -16 -27 22 -16 -6 12 -31 21 -18 24
-19 13 -4 -8 11 0 7 18 -9 18 -17 32 -32 32 -34 0 -3 -9 3 -20 13 -11 10 -20
14 -20 9 0 -12 262 -274 274 -274 5 0 1 9 -9 20 -10 11 -16 20 -13 20 2 0 17
-14 34 -32 16 -18 20 -26 10 -18 -12 9 -17 10 -12 3 9 -17 171 -143 182 -143
5 0 -4 12 -21 26 l-30 26 32 -22 c18 -11 32 -26 30 -32 -1 -6 4 -13 12 -16 9
-3 11 0 6 9 -5 8 -4 11 1 6 5 -5 9 -14 9 -20 0 -5 6 -12 14 -15 9 -3 11 0 6 8
-5 9 -4 11 4 6 6 -4 9 -11 6 -16 -12 -20 292 -182 482 -256 111 -44 352 -115
382 -113 9 0 0 5 -19 10 -290 79 -418 126 -624 232 l-139 72 -409 409 c-224
224 -408 404 -408 400 0 -13 -60 86 -116 191 -104 196 -190 441 -239 674 -13
64 -24 105 -24 92z m724 -1381 c55 -55 97 -100 95 -100 -3 0 -50 45 -105 100
-55 55 -97 100 -95 100 3 0 50 -45 105 -100z m265 -237 c0 -7 -78 56 -87 70
-4 6 14 -6 40 -27 26 -21 47 -40 47 -43z"/>
<path d="M152 1985 c0 -11 3 -29 8 -40 11 -25 11 1 0 35 -6 20 -8 21 -8 5z"/>
<path d="M170 1913 c0 -23 61 -204 106 -311 245 -585 747 -1082 1339 -1327 94
-39 260 -95 278 -94 7 0 -44 19 -113 43 -747 255 -1313 822 -1565 1569 -24 73
-45 126 -45 120z"/>
<path d="M1918 173 c7 -3 16 -2 19 1 4 3 -2 6 -13 5 -11 0 -14 -3 -6 -6z"/>
<path d="M1958 163 c7 -3 16 -2 19 1 4 3 -2 6 -13 5 -11 0 -14 -3 -6 -6z"/>
<path d="M2010 150 c14 -4 34 -8 45 -8 16 0 15 2 -5 8 -14 4 -34 8 -45 8 -16
0 -15 -2 5 -8z"/>
<path d="M3058 143 c7 -3 16 -2 19 1 4 3 -2 6 -13 5 -11 0 -14 -3 -6 -6z"/>
<path d="M2140 124 c36 -7 79 -13 95 -12 17 0 -4 6 -45 13 -97 17 -134 17 -50
-1z"/>
<path d="M3008 133 c7 -3 16 -2 19 1 4 3 -2 6 -13 5 -11 0 -14 -3 -6 -6z"/>
<path d="M2948 123 c7 -3 16 -2 19 1 4 3 -2 6 -13 5 -11 0 -14 -3 -6 -6z"/>
<path d="M2873 113 c9 -2 23 -2 30 0 6 3 -1 5 -18 5 -16 0 -22 -2 -12 -5z"/>
<path d="M2293 103 c15 -2 37 -2 50 0 12 2 0 4 -28 4 -27 0 -38 -2 -22 -4z"/>
<path d="M2778 103 c12 -2 32 -2 45 0 12 2 2 4 -23 4 -25 0 -35 -2 -22 -4z"/>
<path d="M2458 93 c50 -2 134 -2 185 0 50 1 9 3 -93 3 -102 0 -143 -2 -92 -3z"/>
<path d="M3098 73 c7 -3 16 -2 19 1 4 3 -2 6 -13 5 -11 0 -14 -3 -6 -6z"/>
<path d="M2065 60 c17 -4 41 -8 55 -8 22 0 22 1 -5 8 -16 4 -41 8 -55 8 -22 0
-22 -1 5 -8z"/>
<path d="M3048 63 c7 -3 16 -2 19 1 4 3 -2 6 -13 5 -11 0 -14 -3 -6 -6z"/>
<path d="M2988 53 c6 -2 18 -2 25 0 6 3 1 5 -13 5 -14 0 -19 -2 -12 -5z"/>
<path d="M2163 43 c9 -2 25 -2 35 0 9 3 1 5 -18 5 -19 0 -27 -2 -17 -5z"/>
<path d="M2923 43 c9 -2 23 -2 30 0 6 3 -1 5 -18 5 -16 0 -22 -2 -12 -5z"/>
<path d="M2238 33 c12 -2 30 -2 40 0 9 3 -1 5 -23 4 -22 0 -30 -2 -17 -4z"/>
<path d="M2843 33 c9 -2 25 -2 35 0 9 3 1 5 -18 5 -19 0 -27 -2 -17 -5z"/>
<path d="M2327 23 c18 -2 50 -2 70 0 21 2 7 4 -32 4 -38 0 -55 -2 -38 -4z"/>
<path d="M2733 23 c15 -2 39 -2 55 0 15 2 2 4 -28 4 -30 0 -43 -2 -27 -4z"/>
<path d="M2503 13 c26 -2 68 -2 95 0 26 2 4 3 -48 3 -52 0 -74 -1 -47 -3z"/>
</g>
</svg>
