<?xml version="1.0" encoding="utf-8"?>
<!-- Generator: Adobe Illustrator 22.0.1, SVG Export Plug-In . SVG Version: 6.00 Build 0)  -->
<svg version="1.1" id="Layer_1" xmlns="http://www.w3.org/2000/svg" xmlns:xlink="http://www.w3.org/1999/xlink" x="0px" y="0px"
	 viewBox="0 0 128 128" style="enable-background:new 0 0 128 128;" xml:space="preserve">
<style type="text/css">
	.st0{fill:#83CD29;}
</style>
<path class="st0" d="M115.5,28.6L69,1.7c-2.9-1.7-6.8-1.7-9.7,0L12.2,28.6c-3,1.7-5.2,5-5.2,8.5v53.7c0,3.5,2.2,6.7,5.2,8.5l12.4,7
	c5.9,2.9,8,2.9,10.7,2.9c8.8,0,13.8-5.3,13.8-14.5v-53c0-0.7-0.4-1.9-1.1-1.9h-5.9c-0.8,0-2.4,1.1-2.4,1.9v53
	c0,4.1-3.7,8.2-10.7,4.7l-12.8-7.4c-0.4-0.2-0.8-0.7-0.8-1.2V37.1c0-0.5,0.6-1,1-1.3L63.4,9c0.4-0.2,1.1-0.2,1.5,0l46.3,26.8
	c0.4,0.3,0.3,0.8,0.3,1.3v53.7c0,0.5,0.2,1-0.2,1.3L64.7,119c-0.4,0.2-0.9,0.2-1.3,0l-11.9-7.1c-0.4-0.2-0.8-0.3-1.1-0.1
	c-3.3,1.9-3.9,2.1-7.1,3.2c-0.8,0.3-1.9,0.7,0.4,2l15.6,9.2c1.5,0.9,3.2,1.3,4.9,1.3c1.7,0,3.4-0.4,4.9-1.3l46.3-26.9
	c3-1.8,4.5-5,4.5-8.5V37.1C120,33.6,118.6,30.4,115.5,28.6z M78.7,82.3c-12.4,0-15.1-3.4-16-9.5c-0.1-0.7-0.7-1.4-1.3-1.4h-6.1
	c-0.7,0-1.4,0.9-1.4,1.6c0,7.8,4.3,17.3,24.8,17.3c14.8,0,23.3-5.7,23.3-15.9c0-10.1-6.8-12.7-21.2-14.6c-14.5-1.9-16-2.9-16-6.3
	c0-2.8,1.3-6.5,12-6.5c9.6,0,13.2,2.1,14.6,8.5c0.1,0.6,0.7,1,1.3,1h6.1c0.4,0,0.7-0.2,1-0.4c0.3-0.3,0.4-0.6,0.4-1
	c-0.9-11.1-8.4-16.3-23.4-16.3c-13.3,0-21.3,5.6-21.3,15c0,10.2,7.9,13,20.7,14.3c15.3,1.5,16.5,3.7,16.5,6.7
	C92.8,80.1,88.6,82.3,78.7,82.3z"/>
</svg>
