<?xml version="1.0" encoding="utf-8"?>
<!-- Generator: Adobe Illustrator 22.0.1, SVG Export Plug-In . SVG Version: 6.00 Build 0)  -->
<svg version="1.1" id="Layer_1" xmlns="http://www.w3.org/2000/svg" xmlns:xlink="http://www.w3.org/1999/xlink" x="0px" y="0px"
	 viewBox="0 0 128 128" style="enable-background:new 0 0 128 128;" xml:space="preserve">
<style type="text/css">
	.st0{fill:#00C8FF;}
	.st1{fill:#001D26;}
</style>
<rect id="XMLID_3_" class="st0" width="128" height="128"/>
<rect id="XMLID_5_" x="5.6" y="5.6" class="st1" width="116.7" height="116.7"/>
<g id="XMLID_9_">
	<g>
		<path id="XMLID_44_" class="st0" d="M31.1,30.9c0-0.4,0.1-0.6,0.5-0.6c2.9-0.1,8.6-0.2,14.3-0.2c14.8,0,20.5,8.6,20.6,18.9
			c0,14-10.4,19.3-21.6,19.3c-2.1,0-4.2,0-4.7,0v20c0,0.5-0.2,0.7-0.5,0.7h-8c-0.4,0-0.5-0.2-0.5-0.6V30.9z M40.2,59.7
			c0.6,0.1,1.7,0.2,4.9,0.2c6,0,11.7-1.7,11.7-10.5c0-7-3.9-10.7-11-10.7c-3,0-5.1,0.1-5.7,0.2V59.7z"/>
	</g>
</g>
<g id="XMLID_6_">
	<g>
		<path id="XMLID_26_" class="st0" d="M85.4,53.2c-3.6,0-4.6,2.3-4.6,4c0,2.1,1,3.3,6.5,5.9c7.7,3.7,10.9,7,10.9,13.3
			c0,8.8-5.7,13.8-13.9,13.8c-3.9,0-8.9-0.4-12-2.7c-0.3-0.2-0.4-0.4-0.4-0.9v-8.1c0-0.4,0.3-0.6,0.5-0.4c3.9,2.9,8.2,3.7,12.1,3.7
			c3.4,0,4.6-2.3,4.6-4.2c0-2.3-0.8-3.6-6.2-6.2C75.2,67.7,72,64.5,72,58.1c0-7.1,5.3-13,14.1-13c4.5,0,7.7,0.1,9.8,1.5
			c0.4,0.4,0.4,0.6,0.4,1.1V55c0,0.5-0.3,0.8-0.7,0.5C93,53.7,89.2,53.2,85.4,53.2z"/>
	</g>
</g>
</svg>
